<svg xmlns="http://www.w3.org/2000/svg" viewBox="0 0 86.001 29.991"><g id="Layer_2" data-name="Layer 2"><g id="Layer_1-2" data-name="Layer 1"><g id="Layer_2-2" data-name="Layer 2"><g id="Layer_1-2-2" data-name="Layer 1-2"><g id="Layer_2-2-2" data-name="Layer 2-2"><g id="full_logo" data-name="full logo"><path d="M20.52,29.981l-8.25-3.5L23.2,1.681h9.17Z" fill="#fff"/><path d="M20.19,25.991l-8.87,4L0,1.681H9.53Z" fill="#fff"/><path d="M17.11,26.611l-3.23,1.45L2.19,1.681H5.4Z" fill="#231f20"/><path d="M18.76,27.931l-3.19-1.42L27.21,1.681H30.4Q24.58,14.831,18.76,27.931Z" fill="#231f20"/><path d="M15.29,27.4l-1.42.63L2.16,1.681h1.3Z" fill="#2bace2"/><path d="M18.74,28.061l-1.42-.64L29.27,1.681H30.4Z" fill="#2bace2"/><rect x="13.88" y="27.131" width="4.85" height="0.92" fill="#2bace2"/><rect x="15.17" y="26.821" width="2.27" height="0.32" fill="#231f20"/><g style="isolation:isolate"><path d="M35.286,15.091v-.008l-.008.008v-.008L32.37,9.616h1.5l1.416,2.729,1.408-2.729h1.5l-2.908,5.467Z" fill="#fff"/><path d="M39.872,9.616v5.475h-1.3V9.616Z" fill="#fff"/><path d="M41.488,14.94a2.425,2.425,0,0,1-.683-.447,1.823,1.823,0,0,1-.55-1.449l1.141.018v-.009a1.09,1.09,0,0,0,.134.514,1.026,1.026,0,0,0,.925.378c.75,0,1.083-.193,1.083-.513,0-.337-.425-.548-1.117-.623a4.168,4.168,0,0,1-1.1-.27,1.922,1.922,0,0,1-.692-.471,1.423,1.423,0,0,1-.375-.978,1.586,1.586,0,0,1,.375-1.061,2.343,2.343,0,0,1,1.85-.666,2.13,2.13,0,0,1,1.933.911,2.121,2.121,0,0,1,.3,1.044H43.571v.008a.756.756,0,0,0-.125-.429,1.13,1.13,0,0,0-.966-.379c-.483,0-1.042.126-1.042.5,0,.353.367.564,1.108.648a2.68,2.68,0,0,1,1.8.783,1.51,1.51,0,0,1,.366.986,1.473,1.473,0,0,1-.358,1.027,1.729,1.729,0,0,1-.741.481,3.58,3.58,0,0,1-1.158.16A2.691,2.691,0,0,1,41.488,14.94Z" fill="#fff"/></g><g style="isolation:isolate"><path d="M49.853,9.616v3.159a2.317,2.317,0,1,1-4.633-.017V9.616h1.208v3.142a1,1,0,0,0,.359.809,1.226,1.226,0,0,0,.741.3,1.239,1.239,0,0,0,.375-.076,1.3,1.3,0,0,0,.391-.236,1.1,1.1,0,0,0,.259-.337.979.979,0,0,0,.092-.446V9.616Z" fill="#fff"/></g><g style="isolation:isolate"><path d="M53.246,14.324H51.205l-.392.767h-1.5l2.916-5.475,2.908,5.475h-1.5ZM52.721,13.3l-.492-.96-.5.96Z" fill="#fff"/></g><g style="isolation:isolate"><path d="M59.257,13.912v1.179H55.35V9.616h1.3v4.3Z" fill="#fff"/><path d="M64.693,15.091v-.008l-.008.008v-.008L61.777,9.616h1.5l1.417,2.729L66.1,9.616h1.5l-2.908,5.467Z" fill="#fff"/><path d="M69.278,9.616v5.475h-1.3V9.616Z" fill="#fff"/></g><g style="isolation:isolate"><path d="M74.409,13.516c0,1.449-1.558,1.575-1.558,1.575H69.91V9.616h2.508a1.634,1.634,0,0,1,1.541,1.07,1.588,1.588,0,0,1-.217,1.34S74.409,12.328,74.409,13.516Zm-3.2-1.659h1.158a.611.611,0,0,0,0-1.221H71.21Zm1.582,1H71.21v1.22h1.582a.6.6,0,0,0,.6-.606A.608.608,0,0,0,72.792,12.86Z" fill="#fff"/></g><g style="isolation:isolate"><path d="M75.98,13.912h2.482v1.179H74.68V9.616h3.782V10.8H75.98v.969h2.107v1.18H75.98Z" fill="#fff"/></g><g style="isolation:isolate"><path d="M39.11,19.083v1.128h-.523V19.083l-.877-1.054H38.4l.453.547.45-.547h.688Z" fill="#fff"/></g><g style="isolation:isolate"><path d="M41.909,19.164a1.125,1.125,0,1,1-1.124-1.125A1.124,1.124,0,0,1,41.909,19.164Zm-.47,0a.655.655,0,1,0-1.117.463.654.654,0,0,0,.926,0A.65.65,0,0,0,41.439,19.164Z" fill="#fff"/><path d="M43.922,18.029v1.259a.933.933,0,0,1-1.866-.007V18.029h.486v1.252a.4.4,0,0,0,.145.323.5.5,0,0,0,.3.121.532.532,0,0,0,.151-.03.519.519,0,0,0,.157-.095.426.426,0,0,0,.1-.134.384.384,0,0,0,.038-.178V18.029Z" fill="#fff"/><path d="M45.465,19.466l.471.745h-.588l-.457-.7h-.248v.7h-.524V18.029h1.044a.742.742,0,0,1,.779.746A.724.724,0,0,1,45.465,19.466Zm-.822-.42h.517a.423.423,0,0,0,.171-.03.266.266,0,0,0,.077-.057.3.3,0,0,0,.064-.184.282.282,0,0,0-.07-.189.292.292,0,0,0-.239-.087h-.52Z" fill="#fff"/><path d="M47.484,18.029v2.182H46.96V18.029Z" fill="#fff"/><path d="M49.554,19.134a1.094,1.094,0,0,1-1.092,1.091h-.829V18.042h.829A1.092,1.092,0,0,1,49.554,19.134Zm-.5,0a.584.584,0,0,0-.591-.591h-.3v1.178h.305a.584.584,0,0,0,.588-.587Z" fill="#fff"/><path d="M50.274,19.741h1v.47H49.75V18.029h1.525v.47h-1v.386h.85v.47h-.85Z" fill="#fff"/><path d="M52.99,19.905h-.823l-.158.306h-.6l1.175-2.182,1.171,2.182h-.6Zm-.212-.409-.2-.383-.2.383Z" fill="#fff"/><path d="M54.351,19.741v.47l-.128.285h-.241l.131-.285h-.232v-.47Z" fill="#fff"/><path d="M57.621,19.164A1.125,1.125,0,1,1,56.5,18.039,1.125,1.125,0,0,1,57.621,19.164Zm-.47,0a.655.655,0,1,0-1.118.463.654.654,0,0,0,.926,0A.651.651,0,0,0,57.151,19.164Z" fill="#fff"/><path d="M59.633,18.029v1.259a.933.933,0,0,1-1.866-.007V18.029h.486v1.252a.4.4,0,0,0,.145.323.5.5,0,0,0,.3.121.532.532,0,0,0,.151-.03.519.519,0,0,0,.157-.095.426.426,0,0,0,.1-.134.384.384,0,0,0,.037-.178V18.029Z" fill="#fff"/><path d="M61.176,19.466l.47.745h-.587l-.457-.7h-.248v.7H59.83V18.029h1.044a.742.742,0,0,1,.779.746A.724.724,0,0,1,61.176,19.466Zm-.822-.42h.517a.423.423,0,0,0,.171-.03.266.266,0,0,0,.077-.057.308.308,0,0,0,.064-.184.288.288,0,0,0-.07-.189.292.292,0,0,0-.239-.087h-.52Z" fill="#fff"/><path d="M63.9,20.211v0l0,0v0l-1.172-2.179h.605l.57,1.087.567-1.087h.605L63.9,20.208Z" fill="#fff"/><path d="M65.737,18.029v2.182h-.524V18.029Z" fill="#fff"/><path d="M66.387,20.151a.987.987,0,0,1-.275-.178.719.719,0,0,1-.222-.577l.46.007v0a.431.431,0,0,0,.054.2.416.416,0,0,0,.372.15c.3,0,.437-.077.437-.2s-.172-.219-.45-.249a1.693,1.693,0,0,1-.443-.107.779.779,0,0,1-.279-.188.562.562,0,0,1-.151-.39.63.63,0,0,1,.151-.422.949.949,0,0,1,.746-.266.858.858,0,0,1,.778.363.843.843,0,0,1,.121.416h-.46v0a.308.308,0,0,0-.05-.171.458.458,0,0,0-.389-.151c-.2,0-.42.051-.42.2s.148.226.446.259a1.088,1.088,0,0,1,.726.312.6.6,0,0,1,.147.393.584.584,0,0,1-.144.409.7.7,0,0,1-.3.192,1.441,1.441,0,0,1-.467.063A1.08,1.08,0,0,1,66.387,20.151Z" fill="#fff"/><path d="M68.357,18.029v2.182h-.524V18.029Z" fill="#fff"/><path d="M70.705,19.164a1.125,1.125,0,1,1-1.124-1.125A1.124,1.124,0,0,1,70.705,19.164Zm-.47,0a.655.655,0,1,0-1.117.463.654.654,0,0,0,.926,0A.65.65,0,0,0,70.235,19.164Z" fill="#fff"/><path d="M72.8,18.029v2.182l-1.447-1.064v1.064h-.523V18.029l1.446,1.115V18.029Z" fill="#fff"/></g><rect x="38.4" y="16.221" width="33.73" height="1.03" rx="0.14" fill="#2bace2"/><polyline points="11.32 29.991 15.61 28.061 16 28.061 20.52 29.981" fill="#fff"/></g></g></g></g><ellipse cx="83.071" cy="2.641" rx="2.804" ry="2.516" fill="none" stroke="#fff" stroke-miterlimit="10" stroke-width="0.25"/><path d="M81.836,3.764h-.308V1.841h-.705V1.6h1.721v.237h-.708Z" fill="#fff"/><path d="M85.265,3.764h-.3V1.877l-.8,1.887h-.209l-.809-1.887V3.764h-.261V1.6h.456l.744,1.727L84.814,1.6h.451Z" fill="#fff"/></g></g></svg>